<svg width="604" height="604" viewBox="0 0 604 604" xmlns="http://www.w3.org/2000/svg">
<!-- Catalyst mark, the outer shape of the landing page's creative-cycle core (CycleCore) -->
<path d="M388.63 0C413.038 5.23383e-05 436.448 9.69577 453.707 26.9551L576.562 149.81C593.821 167.069 603.518 190.479 603.518 214.888V256.087C603.517 262.864 598.023 268.357 591.246 268.357H519.816C513.672 268.357 508.475 263.814 507.655 257.725L491.567 138.256C489.723 124.562 478.951 113.79 465.258 111.946L305.851 90.4795C303.133 90.1136 300.379 90.1136 297.662 90.4795L138.255 111.946C124.561 113.79 113.79 124.562 111.945 138.256L90.4785 297.663C90.1126 300.38 90.1126 303.135 90.4785 305.853L111.945 465.26C113.79 478.953 124.561 489.725 138.255 491.569L297.662 513.036C300.379 513.402 303.133 513.402 305.851 513.036L465.258 491.569C478.951 489.725 489.723 478.953 491.567 465.26L507.655 345.793C508.475 339.704 513.672 335.159 519.816 335.159H591.246C598.023 335.159 603.518 340.654 603.518 347.431V388.63C603.517 413.038 593.821 436.447 576.562 453.706L453.707 576.561C436.448 593.82 413.038 603.518 388.63 603.518H214.888C190.479 603.518 167.069 593.82 149.81 576.561L26.9551 453.706C9.69606 436.447 0.000180159 413.038 0 388.63V214.888C-2.7013e-07 190.479 9.69578 167.069 26.9551 149.81L149.81 26.9551C167.069 9.69556 190.479 6.87381e-06 214.888 0H388.63Z" fill="white"/>
</svg>
